#!OML:ASF E:\motion texture\Top Level 1\Subject 1\Session 1\male.ASF
:FULLY-SPECIFIED
:DEGREES
237
root -0.284912 17.9715 4.09384 101.37 -79.4464 -94.4372
lowerback -2.15703 3.26538 10.3067
upperback -3.06231 4.18749 1.66323
thorax -1.3753 1.87545 -3.95957
lowerneck -18.222 -1.56951 -5.28298
upperneck 15.6992 -0.209783 -3.01569
head 7.87814 -0.760365 -0.174422
rclavicle 3.42049e-015 1.74931e-014
rhumerus 5.58835 -12.0908 -51.364
rradius 62.8763
rwrist -20.9564
rhand -8.04338 -26.996
rfingers 7.12502
rthumb 17.8671 -56.1953
lclavicle 3.42049e-015 1.74931e-014
lhumerus -38.7572 -3.26481 80.3824
lradius 85.3348
lwrist -9.7792
lhand -4.77396 15.4615
lfingers 7.12502
lthumb 21.0106 44.3434
rfemur 0.723092 4.67894 35.7795
rtibia 12.239
rfoot -12.778 -12.7005
rtoes 8.74485
lfemur -31.9302 0.671673 -3.17249
ltibia 23.2698
lfoot -5.68186 9.25627
ltoes -16.2886
238
root -0.429563 17.9456 4.09991 101.533 -79.3275 -94.4661
lowerback -2.37909 3.33049 10.4681
upperback -3.10572 4.24489 1.54902
thorax -1.26957 1.90363 -4.15257
lowerneck -18.166 -1.50385 -5.18162
upperneck 15.9566 -0.120373 -3.14122
head 7.95381 -0.733203 -0.223166
rclavicle 6.00283e-014 5.96354e-014
rhumerus 6.92036 -13.1734 -51.2905
rradius 62.1537
rwrist -21.1868
rhand -9.03797 -27.914
rfingers 7.12502
rthumb 16.9099 -57.1978
lclavicle 6.00283e-014 5.96354e-014
lhumerus -38.8491 -2.8879 81.2737
lradius 86.4888
lwrist -9.41508
lhand -4.4571 15.2197
lfingers 7.12502
lthumb 21.315 44.0675
rfemur 1.08464 4.67063 35.9052
rtibia 12.3076
rfoot -13.1239 -12.7099
rtoes 7.91109
lfemur -31.7096 0.0551885 -2.80858
ltibia 20.429
lfoot -5.24267 9.39632
ltoes -16.1834
239
root -0.576325 17.9188 4.10616 101.686 -79.2193 -94.5023
lowerback -2.60212 3.39567 10.6107
upperback -3.13991 4.30156 1.43387
thorax -1.15442 1.93285 -4.33562
lowerneck -18.0888 -1.44836 -5.06776
upperneck 16.2066 -0.0472521 -3.27986
head 8.02379 -0.714087 -0.280199
rclavicle -1.62004e-014 -3.89618e-014
rhumerus 8.21317 -14.3139 -51.3361
rradius 61.3823
rwrist -21.3829
rhand -9.94112 -28.8204
rfingers 7.12502
rthumb 16.0403 -58.1765
lclavicle -1.62004e-014 -3.89618e-014
lhumerus -38.8949 -2.46115 82.1733
lradius 87.5105
lwrist -8.93518
lhand -4.07236 14.9365
lfingers 7.12502
lthumb 21.6845 43.7421
rfemur 1.45656 4.66769 36.0143
rtibia 12.4045
rfoot -13.472 -12.7143
rtoes 7.02904
lfemur -31.4546 -0.627678 -2.42568
ltibia 17.6695
lfoot -4.92017 9.50962
ltoes -16.1721
240
root -0.724625 17.891 4.11318 101.847 -79.1267 -94.562
lowerback -2.81552 3.46056 10.7371
upperback -3.16582 4.35865 1.31876
thorax -1.03656 1.96327 -4.50975
lowerneck -18.021 -1.40553 -4.98193
upperneck 16.4724 0.0146908 -3.40333
head 8.10117 -0.701197 -0.329346
rclavicle -2.62484e-014 1.35174e-014
rhumerus 9.47646 -15.5137 -51.5064
rradius 60.5825
rwrist -21.5628
rhand -10.7485 -29.7101
rfingers 7.12502
rthumb 15.2627 -59.127
lclavicle -2.62484e-014 1.35174e-014
lhumerus -38.895 -1.98976 83.0817
lradius 88.409
lwrist -8.33416
lhand -3.60939 14.6811
lfingers 7.12502
lthumb 22.129 43.4347
rfemur 1.82598 4.67256 36.0991
rtibia 12.5448
rfoot -13.8277 -12.7164
rtoes 6.09793
lfemur -31.2098 -1.3204 -2.0558
ltibia 15.1017
lfoot -4.77418 9.60281
ltoes -16.1996
241
root -0.874076 17.8625 4.12074 101.987 -79.0529 -94.6138
lowerback -3.01617 3.52748 10.8428
upperback -3.18645 4.4201 1.20184
thorax -0.920429 1.99663 -4.67458
lowerneck -17.9381 -1.37659 -4.90268
upperneck 16.7361 0.0601869 -3.53633
head 8.17565 -0.697535 -0.382672
rclavicle 1.86758e-014 2.8625e-014
rhumerus 10.6898 -16.7746 -51.7929
rradius 59.7841
rwrist -21.7486
rhand -11.3884 -30.5454
rfingers 7.12502
rthumb 14.6463 -60.0081
lclavicle 1.86758e-014 2.8625e-014
lhumerus -38.8466 -1.4999 83.9964
lradius 89.1814
lwrist -7.60997
lhand -3.0714 14.4686
lfingers 7.12502
lthumb 22.6454 43.1601
rfemur 2.19157 4.67869 36.1587
rtibia 12.7274
rfoot -14.1968 -12.7166
rtoes 5.15672
lfemur -31.0062 -1.96471 -1.73081
ltibia 12.8299
lfoot -4.849 9.6471
ltoes -16.2033
242
root -1.02293 17.8332 4.13023 102.144 -79.0006 -94.6823
lowerback -3.18325 3.59603 10.9436
upperback -3.21803 4.48901 1.07703
thorax -0.832737 2.03206 -4.84689
lowerneck -17.8958 -1.35925 -4.89813
upperneck 17.0657 0.102009 -3.60115
head 8.2798 -0.695986 -0.402471
rclavicle 3.56671e-014 -1.78906e-014
rhumerus 11.8313 -18.0574 -52.1788
rradius 59.0244
rwrist -21.9997
rhand -11.9098 -31.3479
rfingers 7.12502
rthumb 14.1439 -60.8464
lclavicle 3.56671e-014 -1.78906e-014
lhumerus -38.7636 -0.999565 84.9063
lradius 89.8337
lwrist -6.766
lhand -2.4558 14.2948
lfingers 7.12502
lthumb 23.2362 42.913
rfemur 2.52057 4.68522 36.1838
rtibia 12.974
rfoot -14.5812 -12.7074
rtoes 4.20147
lfemur -30.916 -2.47571 -1.50017
ltibia 11.0101
lfoot -5.12959 9.58158
ltoes -16.2067
243
root -1.17164 17.8033 4.14049 102.24 -78.9596 -94.7018
lowerback -3.31876 3.66288 11.0409
upperback -3.24959 4.56012 0.947679
thorax -0.761787 2.06798 -5.0238
lowerneck -17.8543 -1.34721 -4.89609
upperneck 17.4061 0.138861 -3.67191
head 8.38818 -0.69829 -0.424709
rclavicle 2.69524e-014 7.55382e-015
rhumerus 12.8786 -19.3384 -52.6435
rradius 58.3479
rwrist -22.3529
rhand -12.2559 -32.061
rfingers 7.12502
rthumb 13.8104 -61.5826
lclavicle 2.69524e-014 7.55382e-015
lhumerus -38.6298 -0.512405 85.8016
lradius 90.3674
lwrist -5.8092
lhand -1.79535 14.1745
lfingers 7.12502
lthumb 23.8697 42.7113
rfemur 2.83218 4.69024 36.1966
rtibia 13.2795
rfoot -14.9739 -12.7005
rtoes 3.21525
lfemur -30.9435 -2.79378 -1.38307
ltibia 9.72971
lfoot -5.5488 9.34157
ltoes -16.2459
244
root -1.32013 17.7731 4.15157 102.25 -78.9298 -94.6497
lowerback -3.42364 3.72286 11.1345
upperback -3.27416 4.62613 0.816675
thorax -0.701154 2.10139 -5.20228
lowerneck -17.8332 -1.33311 -4.89508
upperneck 17.7636 0.182149 -3.748
head 8.50643 -0.699326 -0.448255
rclavicle -1.37198e-014 1.66979e-014
rhumerus 13.822 -20.5752 -53.1593
rradius 57.7954
rwrist -22.8441
rhand -12.4868 -32.7016
rfingers 7.12502
rthumb 13.5879 -62.2381
lclavicle -1.37198e-014 1.66979e-014
lhumerus -38.4393 -0.0417447 86.6771
lradius 90.7909
lwrist -4.75585
lhand -1.11323 14.1371
lfingers 7.12502
lthumb 24.5237 42.5868
rfemur 3.12753 4.6971 36.2008
rtibia 13.6471
rfoot -15.3753 -12.7006
rtoes 2.20719
lfemur -31.1035 -2.88053 -1.4079
ltibia 9.05962
lfoot -5.96903 8.88153
ltoes -16.3127
245
root -1.46842 17.7428 4.16326 102.146 -78.9011 -94.5066
lowerback -3.49359 3.77459 11.235
upperback -3.28982 4.68553 0.683431
thorax -0.650772 2.13145 -5.3893
lowerneck -17.8236 -1.31688 -4.88512
upperneck 18.1298 0.228564 -3.82984
head 8.63013 -0.699633 -0.475157
rclavicle 3.2185e-014 2.14687e-014
rhumerus 14.6395 -21.7438 -53.707
rradius 57.4091
rwrist -23.4719
rhand -12.5889 -33.2865
rfingers 7.12502
rthumb 13.4895 -62.8297
lclavicle 3.2185e-014 2.14687e-014
lhumerus -38.1897 0.391513 87.5201
lradius 91.1104
lwrist -3.62724
lhand -0.464327 14.1783
lfingers 7.12502
lthumb 25.1456 42.5422
rfemur 3.41331 4.7126 36.2121
rtibia 14.079
rfoot -15.7767 -12.7152
rtoes 1.17372
lfemur -31.3727 -2.78903 -1.54887
ltibia 8.98266
lfoot -6.26917 8.26745
ltoes -16.3218
